<svg width="46" height="36" viewBox="0 0 46 36" fill="none" xmlns="http://www.w3.org/2000/svg">
<path fill-rule="evenodd" clip-rule="evenodd" d="M8.5625 2H6C3.79086 2 2 3.79086 2 6V30C2 32.2091 3.79086 34 6 34H8.5625H15.125V2H8.5625Z" fill="#D9D9D9"/>
<path d="M15.125 34H40C42.2091 34 44 32.2091 44 30V6C44 3.79086 42.2091 2 40 2H15.125M15.125 34V2M15.125 34H8.5625M15.125 2H8.5625M8.5625 34H6C3.79086 34 2 32.2091 2 30V6C2 3.79086 3.79086 2 6 2H8.5625M8.5625 34V2" stroke="#B6B6B6" stroke-width="4"/>
</svg>
