<svg width="78" height="36" viewBox="0 0 78 36" fill="none" xmlns="http://www.w3.org/2000/svg">
<path d="M42.0001 26H62C64.2091 26 66 24.2091 66 22V14C66 11.7909 64.2091 10 62 10H42.0001V26Z" fill="#DFDFDF"/>
<path d="M66 22H72C74.2091 22 76 20.2091 76 18C76 15.7909 74.2091 14 72 14H66V22Z" fill="#DFDFDF"/>
<path d="M42.0001 26V30C42.0001 32.2091 40.2093 34 38.0001 34H34.0002H6C3.79086 34 2 32.2091 2 30V12.6667V6C2 3.79086 3.79086 2 6 2H34.0002H38.0001C40.2093 2 42.0001 3.79086 42.0001 6V10M42.0001 26H62C64.2091 26 66 24.2091 66 22M42.0001 26V10M42.0001 10H62C64.2091 10 66 11.7909 66 14M66 22H72C74.2091 22 76 20.2091 76 18C76 15.7909 74.2091 14 72 14H66M66 22V14" stroke="#B6B6B6" stroke-width="4"/>
</svg>
